# xmcd
#
# Track frame offsets:
#       150
#       10475
#       28587
#       45587
#       60925
#       74575
#       94050
#       110862
#       124575
#       145112
#       156050
#       171750
#       186462
#       199825
#       214462
#
# Disc length: 3008 seconds
#
# Revision: 2
# Processed by: cddbd v1.4PL0 Copyright (c) Steve Scherf et al.
# Submitted via: CD-DA_X-Tractor v0.21
#
DISCID=dd0bbe0f
DTITLE=Kris Kristofferson - The Best of Kris Kristofferson
DYEAR=1900
DGENRE=
TTITLE0=Help me make it through the night
TTITLE1=He's my buddy
TTITLE2=Lovin' her was easier
TTITLE3=If you don't know Hank Williams
TTITLE4=Kiss the world goodbye
TTITLE5=Silver tongued devil and I
TTITLE6=Magdalena
TTITLE7=When I loved her
TTITLE8=Sunday morning coming down
TTITLE9=The bandit of Beverly Hills
TTITLE10=Why me
TTITLE11=Shadows of your mind
TTITLE12=Shake hands with the devil
TTITLE13=Daddy's song
TTITLE14=Jesus was a Capricorn
EXTD=
EXTT0=
EXTT1=
EXTT2=
EXTT3=
EXTT4=
EXTT5=
EXTT6=
EXTT7=
EXTT8=
EXTT9=
EXTT10=
EXTT11=
EXTT12=
EXTT13=
EXTT14=
PLAYORDER=
